HIERARCHY
ROOT Hips
{
	OFFSET -0.001795 -0.223333 0.028219
	CHANNELS 6 Xposition Yposition Zposition Zrotation Yrotation Xrotation 
	JOINT LeftUpLeg
	{
		OFFSET 0.069520 -0.091406 -0.006815
		CHANNELS 3 Zrotation Yrotation Xrotation
		JOINT LeftLeg
		{
			OFFSET 0.034277 -0.375199 -0.004496
			CHANNELS 3 Zrotation Yrotation Xrotation
			JOINT LeftFoot
			{
				OFFSET -0.013596 -0.397961 -0.043693
				CHANNELS 3 Zrotation Yrotation Xrotation
				JOINT LeftToe
				{
					OFFSET 0.026358 -0.055791 0.119288
					CHANNELS 3 Zrotation Yrotation Xrotation
					End Site
					{
						OFFSET 0.000000 0.000000 0.000000
					}
				}
			}
		}
	}
	JOINT RightUpLeg
	{
		OFFSET -0.067670 -0.090522 -0.004320
		CHANNELS 3 Zrotation Yrotation Xrotation
		JOINT RightLeg
		{
			OFFSET -0.038290 -0.382569 -0.008850
			CHANNELS 3 Zrotation Yrotation Xrotation
			JOINT RightFoot
			{
				OFFSET 0.015774 -0.398415 -0.042312
				CHANNELS 3 Zrotation Yrotation Xrotation
				JOINT RightToe
				{
					OFFSET -0.025372 -0.048144 0.123348
					CHANNELS 3 Zrotation Yrotation Xrotation
					End Site
					{
						OFFSET 0.000000 0.000000 0.000000
					}
				}
			}
		}
	}
	JOINT Spine
	{
		OFFSET -0.002533 0.108963 -0.026696
		CHANNELS 3 Zrotation Yrotation Xrotation
		JOINT Spine1
		{
			OFFSET 0.005487 0.135180 0.001092
			CHANNELS 3 Zrotation Yrotation Xrotation
			JOINT Spine2
			{
				OFFSET 0.001457 0.052922 0.025425
				CHANNELS 3 Zrotation Yrotation Xrotation
				JOINT Neck
				{
					OFFSET -0.002778 0.213870 -0.042857
					CHANNELS 3 Zrotation Yrotation Xrotation
					JOINT Head
					{
						OFFSET 0.005152 0.064970 0.051349
						CHANNELS 3 Zrotation Yrotation Xrotation
						End Site
						{
							OFFSET 0.000000 0.000000 0.000000
						}
					}
				}
				JOINT LeftShoulder
				{
					OFFSET 0.078845 0.121749 -0.034090
					CHANNELS 3 Zrotation Yrotation Xrotation
					JOINT LeftArm
					{
						OFFSET 0.090977 0.030469 -0.008868
						CHANNELS 3 Zrotation Yrotation Xrotation
						JOINT LeftForeArm
						{
							OFFSET 0.259612 -0.012772 -0.027456
							CHANNELS 3 Zrotation Yrotation Xrotation
							JOINT LeftHand
							{
								OFFSET 0.249234 0.008986 -0.001171
								CHANNELS 3 Zrotation Yrotation Xrotation
								End Site
								{
									OFFSET 0.000000 0.000000 0.000000
								}
							}
						}
					}
				}
				JOINT RightShoulder
				{
					OFFSET -0.081759 0.118833 -0.038615
					CHANNELS 3 Zrotation Yrotation Xrotation
					JOINT RightArm
					{
						OFFSET -0.096012 0.032551 -0.009143
						CHANNELS 3 Zrotation Yrotation Xrotation
						JOINT RightForeArm
						{
							OFFSET -0.253742 -0.013329 -0.021401
							CHANNELS 3 Zrotation Yrotation Xrotation
							JOINT RightHand
							{
								OFFSET -0.255298 0.007772 -0.005559
								CHANNELS 3 Zrotation Yrotation Xrotation
								End Site
								{
									OFFSET 0.000000 0.000000 0.000000
								}
							}
						}
					}
				}
			}
		}
	}
}
MOTION
Frames: 16
Frame Time: 0.050000
0.015448 0.585048 0.086970 -2.466900 -3.652142 70.139736 4.394205 -1.322639 -10.835089 -1.179698 0.056836 7.480926 2.626812 9.922112 27.119966 0.000000 0.000000 0.000000 3.046124 1.356323 -15.590364 -0.729371 0.747532 12.547714 5.020627 6.098516 8.965469 0.000000 0.000000 0.000000 4.889729 -2.704482 17.541541 1.580097 0.406630 -25.737774 4.541976 1.858029 10.287411 10.188308 -1.363433 -34.902089 0.000000 0.000000 0.000000 -10.556040 -2.761122 1.096980 -45.474835 -8.756666 -1.022531 -145.946810 -50.824315 130.112532 0.000000 0.000000 0.000000 -2.804494 -0.829716 -0.044081 48.889227 -1.866914 -4.190616 175.319337 41.764574 179.859891 0.000000 0.000000 0.000000 
0.013298 0.581162 0.089474 -2.141177 -3.109141 71.263494 4.334491 -1.366457 -11.461540 -0.975470 0.014630 8.631182 2.551985 9.840847 26.440447 0.000000 0.000000 0.000000 3.887272 1.346057 -16.157065 -1.148128 0.884327 13.669108 4.591123 5.379876 8.698632 0.000000 0.000000 0.000000 5.297965 -2.908068 17.372167 1.205552 0.424475 -25.065224 4.567906 1.689652 10.392207 9.548947 -0.925027 -36.751145 0.000000 0.000000 0.000000 -7.300909 -2.079832 0.803963 -47.077399 -10.303526 -0.354196 -150.317963 -51.743825 139.728125 0.000000 0.000000 0.000000 -5.593341 -1.719989 0.026113 50.911831 -0.219644 -3.849800 176.773201 42.147874 -175.200621 0.000000 0.000000 0.000000 
0.012005 0.578635 0.091565 -2.184521 -2.778193 72.366374 4.207822 -1.384710 -11.824820 -0.434740 -0.082481 9.431529 1.947510 9.119371 26.471067 0.000000 0.000000 0.000000 4.606401 1.361770 -16.746963 -1.760019 1.052652 14.482080 4.703018 5.135647 9.445205 0.000000 0.000000 0.000000 5.572535 -3.042235 17.253259 1.094166 0.422533 -24.726550 4.407296 1.565994 10.485183 8.896648 -0.542812 -38.338465 0.000000 0.000000 0.000000 -3.718943 -0.820801 0.303892 -48.678676 -12.167540 0.525911 -154.399809 -52.580659 149.063215 0.000000 0.000000 0.000000 -7.842350 -2.274657 0.171095 52.420566 2.163110 -3.108903 178.253187 41.037033 -169.861073 0.000000 0.000000 0.000000 
0.011610 0.575618 0.092999 -1.973729 -2.309367 73.198458 4.014698 -1.384214 -11.685837 -0.195385 -0.137330 10.185676 1.724641 8.775755 25.545310 0.000000 0.000000 0.000000 5.258532 1.309534 -16.879587 -1.962748 1.152299 15.406870 4.089145 3.611826 9.831434 0.000000 0.000000 0.000000 6.018434 -3.246941 17.074912 0.832200 0.433213 -24.153623 4.483814 1.702413 10.772651 8.068883 -0.056381 -40.463624 0.000000 0.000000 0.000000 -0.349034 -0.512726 0.278742 -50.183139 -15.383083 1.961002 -159.859494 -54.573851 161.418958 0.000000 0.000000 0.000000 -10.689081 -3.420239 0.221924 53.660975 4.892126 -2.136028 179.795904 40.637568 -163.750678 0.000000 0.000000 0.000000 
0.011948 0.575085 0.093653 -1.944995 -1.962345 73.827729 3.599438 -1.354237 -11.575528 0.255176 -0.232623 10.905857 1.482109 8.423258 24.826120 0.000000 0.000000 0.000000 5.232714 1.280737 -16.792957 -1.918834 1.161143 15.788149 3.625299 3.311725 8.752505 0.000000 0.000000 0.000000 6.135153 -3.302652 16.866086 0.958851 0.395069 -23.726573 4.653351 1.787154 11.004011 7.094586 0.320598 -41.672484 0.000000 0.000000 0.000000 1.861318 -0.243105 0.263137 -51.211537 -19.513370 3.846806 -165.793581 -56.170332 174.027973 0.000000 0.000000 0.000000 -12.927979 -3.498600 0.510928 54.435858 7.619170 -1.022700 -178.106311 39.543500 -155.954782 0.000000 0.000000 0.000000 
0.012391 0.574031 0.093912 -1.857119 -1.612005 74.306445 3.161233 -1.306295 -11.217594 0.948138 -0.382127 11.828255 1.194524 7.808935 23.000493 0.000000 0.000000 0.000000 5.694608 1.132538 -16.198998 -2.068664 1.221943 16.280966 3.181942 2.567900 8.404820 0.000000 0.000000 0.000000 6.255281 -3.380278 16.932597 0.893006 0.366282 -22.785885 4.650861 1.471798 11.004663 6.017734 0.630417 -42.458461 0.000000 0.000000 0.000000 4.856614 -0.554326 0.565210 -52.827962 -23.961954 6.238368 -174.554099 -58.959509 -168.812699 0.000000 0.000000 0.000000 -15.309417 -4.077604 0.721504 54.423087 9.906745 -0.150227 -176.245198 38.847770 -149.269596 0.000000 0.000000 0.000000 
0.012427 0.573916 0.094194 -1.541435 -1.144307 75.067229 2.768876 -1.278009 -11.214838 1.881019 -0.575963 12.046114 0.630590 7.281752 23.540455 0.000000 0.000000 0.000000 5.729642 0.992226 -15.487752 -2.106944 1.199481 16.137672 3.178345 2.856856 8.004499 0.000000 0.000000 0.000000 6.368180 -3.427799 16.563800 1.021945 0.329744 -22.351464 4.425070 0.752365 11.479679 5.659459 0.781704 -43.545166 0.000000 0.000000 0.000000 7.798094 0.077227 0.493289 -55.110467 -29.252803 9.614419 174.204721 -60.762183 -148.755420 0.000000 0.000000 0.000000 -17.334147 -4.694257 0.910622 54.891986 11.642323 0.448516 -174.997716 37.893178 -144.392095 0.000000 0.000000 0.000000 
0.011777 0.573833 0.094969 -1.426679 -0.817316 75.983551 2.697326 -1.287296 -11.351312 2.399845 -0.662665 11.599163 0.419954 7.086409 23.711296 0.000000 0.000000 0.000000 5.796911 0.893899 -15.046348 -2.229813 1.220784 16.240913 3.032754 3.270470 6.803531 0.000000 0.000000 0.000000 6.089128 -3.303822 16.187656 1.013120 0.322150 -21.984343 4.370390 -0.271698 11.685435 4.821521 0.927712 -43.793646 0.000000 0.000000 0.000000 9.533380 0.777769 0.343831 -55.584663 -32.567460 11.808946 163.982387 -59.946363 -130.314785 0.000000 0.000000 0.000000 -18.788905 -5.443419 1.065881 55.941762 12.135939 0.457793 -174.123190 37.164156 -141.402016 0.000000 0.000000 0.000000 
0.010392 0.574601 0.096397 -1.399987 -0.626297 76.879778 2.865405 -1.323152 -11.533542 2.648793 -0.674846 10.649294 0.351572 7.081628 24.048561 0.000000 0.000000 0.000000 6.034699 0.778865 -14.579444 -2.449655 1.213645 15.595175 3.444117 3.117398 8.609356 0.000000 0.000000 0.000000 5.788647 -3.181561 15.969781 0.954376 0.339231 -22.019894 4.154215 -1.106602 12.220962 4.368389 1.025647 -44.294414 0.000000 0.000000 0.000000 10.943192 0.754563 0.418857 -56.111886 -35.514561 13.910307 154.897584 -60.132927 -115.825264 0.000000 0.000000 0.000000 -19.502203 -6.019451 1.117827 57.046152 11.596285 0.020968 -173.888768 37.040535 -140.912519 0.000000 0.000000 0.000000 
0.008473 0.576374 0.098232 -1.427259 -0.492817 77.497701 3.376507 -1.392484 -11.557038 2.339288 -0.575080 9.441334 0.728938 7.251580 22.637687 0.000000 0.000000 0.000000 6.157446 0.680341 -14.163839 -2.382099 1.109191 14.354866 3.180724 2.658591 8.410857 0.000000 0.000000 0.000000 5.494456 -3.075136 15.893973 0.767310 0.365485 -21.703034 3.951874 -2.338698 12.133550 3.952607 1.014017 -43.983341 0.000000 0.000000 0.000000 10.607344 0.441273 0.503870 -55.968311 -36.575429 14.770419 146.997917 -61.922720 -105.804675 0.000000 0.000000 0.000000 -19.664558 -6.042626 1.301059 57.508958 10.853373 -0.624700 -173.643230 37.550284 -141.801487 0.000000 0.000000 0.000000 
0.006585 0.577846 0.099723 -1.915482 -0.434371 78.121444 3.878456 -1.451782 -11.501218 1.989176 -0.479853 8.419217 1.051407 7.635045 22.901589 0.000000 0.000000 0.000000 6.186907 0.614323 -13.849914 -1.966342 0.915455 12.547058 2.955651 1.232645 10.103181 0.000000 0.000000 0.000000 5.322761 -3.012109 15.869707 0.418641 0.436895 -21.877739 3.892271 -2.931630 12.688205 3.774325 1.011370 -44.118299 0.000000 0.000000 0.000000 11.126038 0.671280 0.410311 -57.291397 -36.288837 15.394808 140.604010 -65.151227 -101.032538 0.000000 0.000000 0.000000 -19.988122 -6.295501 1.391751 57.585890 10.145935 -1.223720 -173.021125 37.793910 -140.800513 0.000000 0.000000 0.000000 
0.004886 0.579656 0.100381 -2.368933 -0.366119 78.686173 4.202079 -1.489272 -11.396045 1.825974 -0.427557 7.677770 1.222011 7.848903 23.296015 0.000000 0.000000 0.000000 6.539429 0.539646 -13.727209 -2.056210 0.835358 11.056933 2.914119 -0.297140 12.886339 0.000000 0.000000 0.000000 5.088035 -2.919488 15.821329 0.310078 0.450014 -21.659869 3.519247 -3.387117 12.999256 3.881366 0.927713 -43.878775 0.000000 0.000000 0.000000 12.407054 1.044330 0.292122 -58.605460 -35.039715 15.420337 133.737856 -66.978757 -94.923985 0.000000 0.000000 0.000000 -19.904746 -6.125693 1.470098 55.650131 10.877154 -1.039628 -170.386459 39.636858 -136.124167 0.000000 0.000000 0.000000 
0.003603 0.581359 0.100188 -2.758313 -0.222317 79.091419 4.732558 -1.561037 -11.556815 1.567465 -0.388045 7.798395 1.867541 8.525192 22.490469 0.000000 0.000000 0.000000 6.690913 0.586882 -14.154862 -1.563001 0.718097 10.368222 2.329924 -1.651647 13.360869 0.000000 0.000000 0.000000 5.066803 -2.919704 15.790955 -0.007140 0.518147 -21.976214 3.586877 -2.812038 13.417007 3.607872 1.015088 -43.746775 0.000000 0.000000 0.000000 12.533856 0.840018 0.376398 -57.744551 -33.163562 13.771432 133.203265 -68.423578 -96.398131 0.000000 0.000000 0.000000 -20.316237 -6.233437 1.441001 53.328713 11.256727 -0.771775 -168.101901 41.972046 -132.667150 0.000000 0.000000 0.000000 
0.002505 0.582466 0.099523 -3.063935 0.093621 79.234372 5.347037 -1.629988 -11.464582 1.247454 -0.336056 7.696962 2.360020 9.156787 22.470455 0.000000 0.000000 0.000000 7.252986 0.507680 -14.097924 -1.779876 0.740457 10.189247 1.488624 -3.250421 13.298755 0.000000 0.000000 0.000000 4.834542 -2.873708 16.303938 0.102210 0.526165 -22.795170 3.468477 -2.091071 14.225157 3.609644 1.071984 -43.791040 0.000000 0.000000 0.000000 13.237003 1.354069 0.263789 -58.290135 -31.900392 13.001204 136.388076 -67.993211 -100.197672 0.000000 0.000000 0.000000 -20.392121 -5.487595 1.443910 51.060746 11.869622 -0.360345 -165.318415 43.852016 -127.693405 0.000000 0.000000 0.000000 
0.001573 0.583413 0.098795 -2.914004 0.155895 79.771206 5.719031 -1.689539 -11.744668 1.337225 -0.343240 7.500420 2.119509 8.897721 23.018203 0.000000 0.000000 0.000000 7.716819 0.522266 -14.562235 -2.219682 0.846508 10.740923 1.214110 -3.966831 13.704191 0.000000 0.000000 0.000000 4.677535 -2.808285 16.169997 -0.248248 0.600425 -23.118874 3.545369 -1.452712 14.621604 3.318875 1.188312 -43.678812 0.000000 0.000000 0.000000 14.046264 1.741254 0.221489 -57.807985 -31.093500 12.174238 143.822718 -64.926807 -106.141894 0.000000 0.000000 0.000000 -21.298673 -5.375549 1.498054 49.888552 12.750811 0.108679 -163.156463 46.271784 -125.143184 0.000000 0.000000 0.000000 
0.000737 0.583855 0.098219 -2.744675 0.240406 79.941456 5.693839 -1.682248 -11.211192 1.524897 -0.351717 6.786306 2.056294 8.732069 22.445166 0.000000 0.000000 0.000000 8.335919 0.423180 -14.437379 -2.644218 0.909782 10.686051 1.033088 -4.624706 14.473311 0.000000 0.000000 0.000000 4.384607 -2.708048 16.430240 -0.192210 0.591065 -23.006389 3.324642 -1.134306 14.920626 2.925405 1.354099 -44.104462 0.000000 0.000000 0.000000 14.818787 1.957089 0.238644 -58.314243 -30.921246 12.153455 149.613081 -59.870828 -108.466104 0.000000 0.000000 0.000000 -21.395943 -4.727844 1.532564 49.585339 13.632235 0.563001 -161.752758 47.777329 -123.476796 0.000000 0.000000 0.000000 
